<?xml version="1.0" encoding="UTF-8" standalone="no"?>
<!DOCTYPE svg PUBLIC "-//W3C//DTD SVG 1.1//EN"
 "http://www.w3.org/Graphics/SVG/1.1/DTD/svg11.dtd">
<!-- Generated by graphviz version 2.38.0 (20140413.2041)
 -->
<!-- Title: G Pages: 1 -->
<svg width="351pt" height="298pt"
 viewBox="0.00 0.00 351.11 298.25" xmlns="http://www.w3.org/2000/svg" xmlns:xlink="http://www.w3.org/1999/xlink">
<g id="graph0" class="graph" transform="scale(1 1) rotate(0) translate(142.999 138.785)">
<title>G</title>
<polygon fill="none" stroke="none" points="-142.999,159.46 -142.999,-138.785 208.111,-138.785 208.111,159.46 -142.999,159.46"/>
<!-- 1 -->
<g id="node1" class="node"><title>1</title>
<ellipse fill="none" stroke="black" cx="-111.816" cy="-46.1727" rx="27" ry="18"/>
<text text-anchor="middle" x="-111.816" y="-42.4727" font-family="Times,serif" font-size="14.00">1</text>
</g>
<!-- 2 -->
<g id="node2" class="node"><title>2</title>
<ellipse fill="none" stroke="black" cx="-45.4345" cy="-0.180043" rx="27" ry="18"/>
<text text-anchor="middle" x="-45.4345" y="3.51996" font-family="Times,serif" font-size="14.00">2</text>
</g>
<!-- 1&#45;&#45;2 -->
<g id="edge1" class="edge"><title>1&#45;&#45;2</title>
<path fill="none" stroke="black" d="M-92.9711,-33.1161C-84.0785,-26.9547 -73.4845,-19.6146 -64.5568,-13.429"/>
</g>
<!-- 3 -->
<g id="node3" class="node"><title>3</title>
<ellipse fill="none" stroke="black" cx="28.2259" cy="-36.1512" rx="27" ry="18"/>
<text text-anchor="middle" x="28.2259" y="-32.4512" font-family="Times,serif" font-size="14.00">3</text>
</g>
<!-- 2&#45;&#45;3 -->
<g id="edge2" class="edge"><title>2&#45;&#45;3</title>
<path fill="none" stroke="black" d="M-23.334,-10.9726C-13.9262,-15.5667 -2.98334,-20.9106 6.39476,-25.4903"/>
</g>
<!-- 5 -->
<g id="node5" class="node"><title>5</title>
<ellipse fill="none" stroke="black" cx="-72.6177" cy="74.1293" rx="27" ry="18"/>
<text text-anchor="middle" x="-72.6177" y="77.8293" font-family="Times,serif" font-size="14.00">5</text>
</g>
<!-- 2&#45;&#45;5 -->
<g id="edge4" class="edge"><title>2&#45;&#45;5</title>
<path fill="none" stroke="black" d="M-51.8766,17.4302C-56.1784,29.1899 -61.816,44.6012 -66.1277,56.3879"/>
</g>
<!-- 4 -->
<g id="node4" class="node"><title>4</title>
<ellipse fill="none" stroke="black" cx="32.9547" cy="-116.785" rx="27" ry="18"/>
<text text-anchor="middle" x="32.9547" y="-113.085" font-family="Times,serif" font-size="14.00">4</text>
</g>
<!-- 3&#45;&#45;4 -->
<g id="edge3" class="edge"><title>3&#45;&#45;4</title>
<path fill="none" stroke="black" d="M29.2989,-54.4483C30.0728,-67.6445 31.113,-85.3808 31.8859,-98.5604"/>
</g>
<!-- 6 -->
<g id="node6" class="node"><title>6</title>
<ellipse fill="none" stroke="black" cx="103.575" cy="-12.2103" rx="27" ry="18"/>
<text text-anchor="middle" x="103.575" y="-8.51027" font-family="Times,serif" font-size="14.00">6</text>
</g>
<!-- 3&#45;&#45;6 -->
<g id="edge5" class="edge"><title>3&#45;&#45;6</title>
<path fill="none" stroke="black" d="M52.8981,-28.3121C61.3105,-25.6392 70.7086,-22.6531 79.105,-19.9853"/>
</g>
<!-- 7 -->
<g id="node7" class="node"><title>7</title>
<ellipse fill="none" stroke="black" cx="-111.999" cy="137.46" rx="27" ry="18"/>
<text text-anchor="middle" x="-111.999" y="141.16" font-family="Times,serif" font-size="14.00">7</text>
</g>
<!-- 5&#45;&#45;7 -->
<g id="edge6" class="edge"><title>5&#45;&#45;7</title>
<path fill="none" stroke="black" d="M-82.9646,90.7687C-88.7074,100.004 -95.8306,111.459 -101.584,120.712"/>
</g>
<!-- 8 -->
<g id="node8" class="node"><title>8</title>
<ellipse fill="none" stroke="black" cx="177.111" cy="-0.0900245" rx="27" ry="18"/>
<text text-anchor="middle" x="177.111" y="3.60998" font-family="Times,serif" font-size="14.00">8</text>
</g>
<!-- 6&#45;&#45;8 -->
<g id="edge7" class="edge"><title>6&#45;&#45;8</title>
<path fill="none" stroke="black" d="M130.123,-7.83458C136.87,-6.72256 144.116,-5.52833 150.848,-4.41865"/>
</g>
</g>
</svg>
