<?xml version="1.0" encoding="UTF-8" standalone="no"?>
<!DOCTYPE svg PUBLIC "-//W3C//DTD SVG 1.1//EN"
 "http://www.w3.org/Graphics/SVG/1.1/DTD/svg11.dtd">
<!-- Generated by graphviz version 2.38.0 (20140413.2041)
 -->
<!-- Title: G Pages: 1 -->
<svg width="134pt" height="260pt"
 viewBox="0.00 0.00 134.00 260.00" xmlns="http://www.w3.org/2000/svg" xmlns:xlink="http://www.w3.org/1999/xlink">
<g id="graph0" class="graph" transform="scale(1 1) rotate(0) translate(4 256)">
<title>G</title>
<polygon fill="none" stroke="none" points="-4,4 -4,-256 130,-256 130,4 -4,4"/>
<!-- A -->
<g id="node1" class="node"><title>A</title>
<ellipse fill="none" stroke="black" cx="27" cy="-234" rx="27" ry="18"/>
<text text-anchor="middle" x="27" y="-230.3" font-family="Times,serif" font-size="14.00">A</text>
</g>
<!-- E -->
<g id="node2" class="node"><title>E</title>
<ellipse fill="none" stroke="black" cx="27" cy="-162" rx="27" ry="18"/>
<text text-anchor="middle" x="27" y="-158.3" font-family="Times,serif" font-size="14.00">E</text>
</g>
<!-- A&#45;&#45;E -->
<g id="edge1" class="edge"><title>A&#45;&#45;E</title>
<path fill="none" stroke="black" d="M27,-215.697C27,-204.846 27,-190.917 27,-180.104"/>
</g>
<!-- B -->
<g id="node3" class="node"><title>B</title>
<ellipse fill="none" stroke="black" cx="27" cy="-90" rx="27" ry="18"/>
<text text-anchor="middle" x="27" y="-86.3" font-family="Times,serif" font-size="14.00">B</text>
</g>
<!-- E&#45;&#45;B -->
<g id="edge2" class="edge"><title>E&#45;&#45;B</title>
<path fill="none" stroke="black" d="M27,-143.697C27,-132.846 27,-118.917 27,-108.104"/>
</g>
<!-- F -->
<g id="node4" class="node"><title>F</title>
<ellipse fill="none" stroke="black" cx="99" cy="-90" rx="27" ry="18"/>
<text text-anchor="middle" x="99" y="-86.3" font-family="Times,serif" font-size="14.00">F</text>
</g>
<!-- E&#45;&#45;F -->
<g id="edge3" class="edge"><title>E&#45;&#45;F</title>
<path fill="none" stroke="black" d="M41.5703,-146.834C53.9798,-134.77 71.7306,-117.512 84.2043,-105.385"/>
</g>
<!-- D -->
<g id="node6" class="node"><title>D</title>
<ellipse fill="none" stroke="black" cx="99" cy="-18" rx="27" ry="18"/>
<text text-anchor="middle" x="99" y="-14.3" font-family="Times,serif" font-size="14.00">D</text>
</g>
<!-- F&#45;&#45;D -->
<g id="edge5" class="edge"><title>F&#45;&#45;D</title>
<path fill="none" stroke="black" d="M99,-71.6966C99,-60.8463 99,-46.9167 99,-36.1043"/>
</g>
<!-- C -->
<g id="node5" class="node"><title>C</title>
<ellipse fill="none" stroke="black" cx="99" cy="-162" rx="27" ry="18"/>
<text text-anchor="middle" x="99" y="-158.3" font-family="Times,serif" font-size="14.00">C</text>
</g>
<!-- C&#45;&#45;F -->
<g id="edge4" class="edge"><title>C&#45;&#45;F</title>
<path fill="none" stroke="black" d="M99,-143.697C99,-132.846 99,-118.917 99,-108.104"/>
</g>
</g>
</svg>
