<?xml version="1.0" encoding="UTF-8" standalone="no"?>
<!DOCTYPE svg PUBLIC "-//W3C//DTD SVG 1.1//EN"
 "http://www.w3.org/Graphics/SVG/1.1/DTD/svg11.dtd">
<!-- Generated by graphviz version 2.38.0 (20140413.2041)
 -->
<!-- Title: G Pages: 1 -->
<svg width="222pt" height="204pt"
 viewBox="0.00 0.00 222.43 204.43" xmlns="http://www.w3.org/2000/svg" xmlns:xlink="http://www.w3.org/1999/xlink">
<g id="graph0" class="graph" transform="scale(1 1) rotate(0) translate(4 200.428)">
<title>G</title>
<polygon fill="none" stroke="none" points="-4,4 -4,-200.428 218.428,-200.428 218.428,4 -4,4"/>
<!-- 1 -->
<g id="node1" class="node"><title>1</title>
<ellipse fill="none" stroke="black" cx="107.214" cy="-18" rx="27" ry="18"/>
<text text-anchor="middle" x="107.214" y="-14.3" font-family="Times,serif" font-size="14.00">1</text>
</g>
<!-- 2 -->
<g id="node2" class="node"><title>2</title>
<ellipse fill="none" stroke="black" cx="27" cy="-98.2141" rx="27" ry="18"/>
<text text-anchor="middle" x="27" y="-94.5141" font-family="Times,serif" font-size="14.00">2</text>
</g>
<!-- 1&#45;&gt;2 -->
<g id="edge1" class="edge"><title>1&#45;&gt;2</title>
<path fill="none" stroke="black" d="M87.0581,-30.309C73.5667,-41.7686 56.141,-58.9849 43.4735,-73.2655"/>
<polygon fill="black" stroke="black" points="40.4689,-71.3937 36.6305,-81.2688 45.7894,-75.9428 40.4689,-71.3937"/>
<text text-anchor="middle" x="61.7658" y="-55.5873" font-family="Times,serif" font-size="14.00">2</text>
</g>
<!-- 4 -->
<g id="node4" class="node"><title>4</title>
<ellipse fill="none" stroke="black" cx="187.428" cy="-98.2141" rx="27" ry="18"/>
<text text-anchor="middle" x="187.428" y="-94.5141" font-family="Times,serif" font-size="14.00">4</text>
</g>
<!-- 1&#45;&gt;4 -->
<g id="edge8" class="edge"><title>1&#45;&gt;4</title>
<path fill="none" stroke="black" d="M116.807,-34.8989C127.442,-47.9087 144.785,-65.7377 159.669,-79.2211"/>
<polygon fill="black" stroke="black" points="157.36,-81.8512 167.181,-85.8273 161.983,-76.5949 157.36,-81.8512"/>
<text text-anchor="middle" x="134.738" y="-60.86" font-family="Times,serif" font-size="14.00">4</text>
</g>
<!-- 2&#45;&gt;1 -->
<g id="edge2" class="edge"><title>2&#45;&gt;1</title>
<path fill="none" stroke="black" d="M47.156,-85.9051C60.6474,-74.4455 78.0731,-57.2292 90.7406,-42.9486"/>
<polygon fill="black" stroke="black" points="93.7451,-44.8204 97.5836,-34.9453 88.4247,-40.2713 93.7451,-44.8204"/>
<text text-anchor="middle" x="72.4483" y="-68.2268" font-family="Times,serif" font-size="14.00">4</text>
</g>
<!-- 3 -->
<g id="node3" class="node"><title>3</title>
<ellipse fill="none" stroke="black" cx="107.214" cy="-178.428" rx="27" ry="18"/>
<text text-anchor="middle" x="107.214" y="-174.728" font-family="Times,serif" font-size="14.00">3</text>
</g>
<!-- 2&#45;&gt;3 -->
<g id="edge3" class="edge"><title>2&#45;&gt;3</title>
<path fill="none" stroke="black" d="M36.5926,-115.113C47.228,-128.123 64.5705,-145.952 79.4554,-159.435"/>
<polygon fill="black" stroke="black" points="77.1462,-162.065 86.9666,-166.041 81.7692,-156.809 77.1462,-162.065"/>
<text text-anchor="middle" x="54.524" y="-141.074" font-family="Times,serif" font-size="14.00">3</text>
</g>
<!-- 3&#45;&gt;2 -->
<g id="edge4" class="edge"><title>3&#45;&gt;2</title>
<path fill="none" stroke="black" d="M97.6215,-161.529C86.9861,-148.52 69.6436,-130.691 54.7587,-117.207"/>
<polygon fill="black" stroke="black" points="57.0679,-114.577 47.2475,-110.601 52.4449,-119.833 57.0679,-114.577"/>
<text text-anchor="middle" x="72.6901" y="-143.168" font-family="Times,serif" font-size="14.00">4</text>
</g>
<!-- 3&#45;&gt;4 -->
<g id="edge5" class="edge"><title>3&#45;&gt;4</title>
<path fill="none" stroke="black" d="M127.37,-166.119C140.861,-154.66 158.287,-137.443 170.955,-123.163"/>
<polygon fill="black" stroke="black" points="173.959,-125.034 177.798,-115.159 168.639,-120.485 173.959,-125.034"/>
<text text-anchor="middle" x="145.662" y="-148.441" font-family="Times,serif" font-size="14.00">4</text>
</g>
<!-- 4&#45;&gt;1 -->
<g id="edge7" class="edge"><title>4&#45;&gt;1</title>
<path fill="none" stroke="black" d="M177.836,-81.3152C167.2,-68.3054 149.858,-50.4764 134.973,-36.993"/>
<polygon fill="black" stroke="black" points="137.282,-34.3629 127.462,-30.3868 132.659,-39.6192 137.282,-34.3629"/>
<text text-anchor="middle" x="152.904" y="-62.9541" font-family="Times,serif" font-size="14.00">5</text>
</g>
<!-- 4&#45;&gt;3 -->
<g id="edge6" class="edge"><title>4&#45;&gt;3</title>
<path fill="none" stroke="black" d="M167.272,-110.523C153.781,-121.983 136.355,-139.199 123.688,-153.48"/>
<polygon fill="black" stroke="black" points="120.683,-151.608 116.845,-161.483 126.003,-156.157 120.683,-151.608"/>
<text text-anchor="middle" x="141.98" y="-120.801" font-family="Times,serif" font-size="14.00">4</text>
</g>
</g>
</svg>
