<?xml version="1.0" encoding="UTF-8" standalone="no"?>
<!DOCTYPE svg PUBLIC "-//W3C//DTD SVG 1.1//EN"
 "http://www.w3.org/Graphics/SVG/1.1/DTD/svg11.dtd">
<!-- Generated by graphviz version 2.38.0 (20140413.2041)
 -->
<!-- Title: G Pages: 1 -->
<svg width="178pt" height="173pt"
 viewBox="0.00 0.00 178.00 173.00" xmlns="http://www.w3.org/2000/svg" xmlns:xlink="http://www.w3.org/1999/xlink">
<g id="graph0" class="graph" transform="scale(1 1) rotate(0) translate(4 169)">
<title>G</title>
<polygon fill="none" stroke="none" points="-4,4 -4,-169 174,-169 174,4 -4,4"/>
<!-- 2 -->
<g id="node1" class="node"><title>2</title>
<ellipse fill="none" stroke="black" cx="55.5868" cy="-18.2091" rx="27" ry="18"/>
<text text-anchor="middle" x="55.5868" y="-14.5091" font-family="Times,serif" font-size="14.00">2</text>
</g>
<!-- 1 -->
<g id="node2" class="node"><title>1</title>
<ellipse fill="none" stroke="black" cx="125.502" cy="-25.4153" rx="27" ry="18"/>
<text text-anchor="middle" x="125.502" y="-21.7153" font-family="Times,serif" font-size="14.00">1</text>
</g>
<!-- 2&#45;&gt;1 -->
<g id="edge1" class="edge"><title>2&#45;&gt;1</title>
<path fill="none" stroke="black" d="M82.418,-20.9746C84.3819,-21.177 86.3821,-21.3832 88.3918,-21.5903"/>
<polygon fill="black" stroke="black" points="88.0899,-25.0776 98.3961,-22.6214 88.8076,-18.1145 88.0899,-25.0776"/>
<text text-anchor="middle" x="88.9049" y="-25.0824" font-family="Times,serif" font-size="14.00">1</text>
</g>
<!-- T -->
<g id="node5" class="node"><title>T</title>
<ellipse fill="none" stroke="black" cx="142.811" cy="-84.6355" rx="27" ry="18"/>
<text text-anchor="middle" x="142.811" y="-80.9355" font-family="Times,serif" font-size="14.00">T</text>
</g>
<!-- 1&#45;&gt;T -->
<g id="edge4" class="edge"><title>1&#45;&gt;T</title>
<path fill="none" stroke="black" d="M130.695,-43.1833C131.962,-47.5165 133.347,-52.2549 134.713,-56.9297"/>
<polygon fill="black" stroke="black" points="131.457,-58.2635 137.622,-66.88 138.176,-56.2997 131.457,-58.2635"/>
<text text-anchor="middle" x="129.204" y="-53.8565" font-family="Times,serif" font-size="14.00">1</text>
</g>
<!-- 3 -->
<g id="node3" class="node"><title>3</title>
<ellipse fill="none" stroke="black" cx="40.035" cy="-71.81" rx="27" ry="18"/>
<text text-anchor="middle" x="40.035" y="-68.11" font-family="Times,serif" font-size="14.00">3</text>
</g>
<!-- 3&#45;&gt;2 -->
<g id="edge2" class="edge"><title>3&#45;&gt;2</title>
<path fill="none" stroke="black" d="M45.2135,-53.9617C45.9662,-51.3674 46.7556,-48.6466 47.5487,-45.9133"/>
<polygon fill="black" stroke="black" points="50.9527,-46.7415 50.3779,-36.1622 44.2299,-44.7909 50.9527,-46.7415"/>
<text text-anchor="middle" x="42.8811" y="-38.7375" font-family="Times,serif" font-size="14.00">1</text>
</g>
<!-- 4 -->
<g id="node4" class="node"><title>4</title>
<ellipse fill="none" stroke="black" cx="27.0208" cy="-125.146" rx="27" ry="18"/>
<text text-anchor="middle" x="27.0208" y="-121.446" font-family="Times,serif" font-size="14.00">4</text>
</g>
<!-- 4&#45;&gt;3 -->
<g id="edge3" class="edge"><title>4&#45;&gt;3</title>
<path fill="none" stroke="black" d="M31.4268,-107.089C31.9992,-104.743 32.5959,-102.297 33.1964,-99.8364"/>
<polygon fill="black" stroke="black" points="36.6632,-100.393 35.6335,-89.8485 29.8627,-98.7338 36.6632,-100.393"/>
<text text-anchor="middle" x="28.8116" y="-92.2626" font-family="Times,serif" font-size="14.00">1</text>
</g>
<!-- S -->
<g id="node6" class="node"><title>S</title>
<ellipse fill="none" stroke="black" cx="96.1579" cy="-146.563" rx="27" ry="18"/>
<text text-anchor="middle" x="96.1579" y="-142.863" font-family="Times,serif" font-size="14.00">S</text>
</g>
<!-- S&#45;&gt;4 -->
<g id="edge5" class="edge"><title>S&#45;&gt;4</title>
<path fill="none" stroke="black" d="M71.5881,-138.952C68.2259,-137.91 64.7257,-136.826 61.2304,-135.743"/>
<polygon fill="black" stroke="black" points="62.0994,-132.348 51.5115,-132.733 60.028,-139.035 62.0994,-132.348"/>
<text text-anchor="middle" x="62.9092" y="-141.148" font-family="Times,serif" font-size="14.00">1</text>
</g>
</g>
</svg>
