<?xml version="1.0" encoding="UTF-8" standalone="no"?>
<!DOCTYPE svg PUBLIC "-//W3C//DTD SVG 1.1//EN"
 "http://www.w3.org/Graphics/SVG/1.1/DTD/svg11.dtd">
<!-- Generated by graphviz version 2.38.0 (20140413.2041)
 -->
<!-- Title: G Pages: 1 -->
<svg width="134pt" height="305pt"
 viewBox="0.00 0.00 134.00 305.00" xmlns="http://www.w3.org/2000/svg" xmlns:xlink="http://www.w3.org/1999/xlink">
<g id="graph0" class="graph" transform="scale(1 1) rotate(0) translate(4 301)">
<title>G</title>
<polygon fill="none" stroke="none" points="-4,4 -4,-301 130,-301 130,4 -4,4"/>
<!-- root -->
<g id="node1" class="node"><title>root</title>
<ellipse fill="none" stroke="black" cx="68" cy="-279" rx="27" ry="18"/>
<text text-anchor="middle" x="68" y="-275.3" font-family="Times New Roman,serif" font-size="14.00">root</text>
</g>
<!-- a -->
<g id="node2" class="node"><title>a</title>
<ellipse fill="none" stroke="black" cx="27" cy="-192" rx="27" ry="18"/>
<text text-anchor="middle" x="27" y="-188.3" font-family="Times New Roman,serif" font-size="14.00">a</text>
</g>
<!-- root&#45;&#45;a -->
<g id="edge1" class="edge"><title>root&#45;&#45;a</title>
<path fill="none" stroke="black" d="M60.0948,-261.611C52.8346,-246.56 42.1334,-224.374 34.8809,-209.339"/>
<text text-anchor="middle" x="52.5" y="-231.8" font-family="Times New Roman,serif" font-size="14.00">4</text>
</g>
<!-- b -->
<g id="node3" class="node"><title>b</title>
<ellipse fill="none" stroke="black" cx="99" cy="-192" rx="27" ry="18"/>
<text text-anchor="middle" x="99" y="-188.3" font-family="Times New Roman,serif" font-size="14.00">b</text>
</g>
<!-- root&#45;&#45;b -->
<g id="edge2" class="edge"><title>root&#45;&#45;b</title>
<path fill="none" stroke="black" d="M74.1246,-261.207C79.5593,-246.305 87.4572,-224.649 92.8881,-209.758"/>
<text text-anchor="middle" x="88.5" y="-231.8" font-family="Times New Roman,serif" font-size="14.00">1</text>
</g>
<!-- v -->
<g id="node6" class="node"><title>v</title>
<ellipse fill="none" stroke="black" cx="27" cy="-105" rx="27" ry="18"/>
<text text-anchor="middle" x="27" y="-101.3" font-family="Times New Roman,serif" font-size="14.00">v</text>
</g>
<!-- a&#45;&#45;v -->
<g id="edge5" class="edge"><title>a&#45;&#45;v</title>
<path fill="none" stroke="black" d="M27,-173.799C27,-159.052 27,-137.915 27,-123.175"/>
<text text-anchor="middle" x="30.5" y="-144.8" font-family="Times New Roman,serif" font-size="14.00">5</text>
</g>
<!-- c -->
<g id="node4" class="node"><title>c</title>
<ellipse fill="none" stroke="black" cx="99" cy="-105" rx="27" ry="18"/>
<text text-anchor="middle" x="99" y="-101.3" font-family="Times New Roman,serif" font-size="14.00">c</text>
</g>
<!-- b&#45;&#45;c -->
<g id="edge3" class="edge"><title>b&#45;&#45;c</title>
<path fill="none" stroke="black" d="M99,-173.799C99,-159.052 99,-137.915 99,-123.175"/>
<text text-anchor="middle" x="102.5" y="-144.8" font-family="Times New Roman,serif" font-size="14.00">2</text>
</g>
<!-- u -->
<g id="node5" class="node"><title>u</title>
<ellipse fill="none" stroke="black" cx="99" cy="-18" rx="27" ry="18"/>
<text text-anchor="middle" x="99" y="-14.3" font-family="Times New Roman,serif" font-size="14.00">u</text>
</g>
<!-- c&#45;&#45;u -->
<g id="edge4" class="edge"><title>c&#45;&#45;u</title>
<path fill="none" stroke="black" d="M99,-86.799C99,-72.0519 99,-50.9152 99,-36.1754"/>
<text text-anchor="middle" x="102.5" y="-57.8" font-family="Times New Roman,serif" font-size="14.00">3</text>
</g>
</g>
</svg>
