<?xml version="1.0" encoding="UTF-8" standalone="no"?>
<!DOCTYPE svg PUBLIC "-//W3C//DTD SVG 1.1//EN"
 "http://www.w3.org/Graphics/SVG/1.1/DTD/svg11.dtd">
<!-- Generated by graphviz version 2.38.0 (20140413.2041)
 -->
<!-- Title: G Pages: 1 -->
<svg width="132pt" height="154pt"
 viewBox="0.00 0.00 132.00 154.00" xmlns="http://www.w3.org/2000/svg" xmlns:xlink="http://www.w3.org/1999/xlink">
<g id="graph0" class="graph" transform="scale(1 1) rotate(0) translate(4 150)">
<title>G</title>
<polygon fill="none" stroke="none" points="-4,4 -4,-150 128,-150 128,4 -4,4"/>
<!-- 1 -->
<g id="node1" class="node"><title>1</title>
<ellipse fill="none" stroke="black" cx="54.9409" cy="-17.8641" rx="27" ry="18"/>
<text text-anchor="middle" x="54.9409" y="-14.1641" font-family="Times,serif" font-size="14.00">1</text>
</g>
<!-- 2 -->
<g id="node2" class="node"><title>2</title>
<ellipse fill="none" stroke="black" cx="92.5921" cy="-65.8979" rx="27" ry="18"/>
<text text-anchor="middle" x="92.5921" y="-62.1979" font-family="Times,serif" font-size="14.00">2</text>
</g>
<!-- 1&#45;&#45;2 -->
<g id="edge1" class="edge"><title>1&#45;&#45;2</title>
<path fill="none" stroke="black" d="M67.4782,-33.8586C71.4999,-38.9894 75.9542,-44.672 79.9812,-49.8094"/>
</g>
<!-- 3 -->
<g id="node3" class="node"><title>3</title>
<ellipse fill="none" stroke="black" cx="26.8203" cy="-68.3455" rx="27" ry="18"/>
<text text-anchor="middle" x="26.8203" y="-64.6455" font-family="Times,serif" font-size="14.00">3</text>
</g>
<!-- 1&#45;&#45;3 -->
<g id="edge2" class="edge"><title>1&#45;&#45;3</title>
<path fill="none" stroke="black" d="M45.4206,-34.9548C42.4888,-40.2179 39.262,-46.0105 36.3308,-51.2724"/>
</g>
<!-- 2&#45;&#45;3 -->
<g id="edge3" class="edge"><title>2&#45;&#45;3</title>
<path fill="none" stroke="black" d="M65.4604,-66.9076C61.6387,-67.0498 57.7101,-67.196 53.8896,-67.3382"/>
</g>
<!-- 4 -->
<g id="node4" class="node"><title>4</title>
<ellipse fill="none" stroke="black" cx="96.7083" cy="-122.913" rx="27" ry="18"/>
<text text-anchor="middle" x="96.7083" y="-119.213" font-family="Times,serif" font-size="14.00">4</text>
</g>
<!-- 2&#45;&#45;4 -->
<g id="edge4" class="edge"><title>2&#45;&#45;4</title>
<path fill="none" stroke="black" d="M93.8945,-83.9379C94.375,-90.5933 94.9193,-98.1326 95.4002,-104.795"/>
</g>
<!-- 5 -->
<g id="node5" class="node"><title>5</title>
<ellipse fill="none" stroke="black" cx="28.349" cy="-127.616" rx="27" ry="18"/>
<text text-anchor="middle" x="28.349" y="-123.916" font-family="Times,serif" font-size="14.00">5</text>
</g>
<!-- 3&#45;&#45;5 -->
<g id="edge6" class="edge"><title>3&#45;&#45;5</title>
<path fill="none" stroke="black" d="M27.2872,-86.4507C27.4734,-93.668 27.6874,-101.966 27.8743,-109.213"/>
</g>
<!-- 4&#45;&#45;5 -->
<g id="edge5" class="edge"><title>4&#45;&#45;5</title>
<path fill="none" stroke="black" d="M69.6909,-124.772C65.0633,-125.09 60.2523,-125.421 55.6181,-125.74"/>
</g>
</g>
</svg>
